<svg viewBox="0 0 314 60" version="1.1" xmlns="http://www.w3.org/2000/svg" xmlns:xlink="http://www.w3.org/1999/xlink">
  <path d="M16.8288934,52.3693648 C19.0061584,52.4205945 20.9336494,51.7866357 22.6114242,50.4674693 C24.289199,49.1483028 25.3586043,47.4257278 25.8196721,45.2996926 L34.4262295,45.2612705 C34.1444658,48.0020629 33.151904,50.4994764 31.4485143,52.7535861 C29.7451247,55.0076957 27.5614887,56.7622888 24.897541,58.017418 C22.2335932,59.2725473 19.4544202,59.8616807 16.5599385,59.7848361 C12.9994699,59.7336063 9.9641519,58.8114844 7.45389344,57.0184426 C4.94363499,55.2254009 3.11219839,52.7471982 1.95952869,49.5837602 C0.806858991,46.4203223 0.422641522,42.8919252 0.806864754,38.9984631 L0.922131148,37.6536885 C1.35758414,33.632152 2.52944743,29.9884897 4.43775615,26.7225922 C6.34606487,23.4566947 8.8114603,20.9400703 11.8340164,19.1726434 C14.8565725,17.4052166 18.2120717,16.5727454 21.9006148,16.6752049 C26.408834,16.7776644 30.007671,18.269709 32.6972336,21.1513832 C35.3867962,24.0330574 36.7315574,27.7791778 36.7315574,32.3898566 L28.2018443,32.3898566 C28.2018443,30.0076725 27.6191144,28.0609707 26.4536373,26.5496926 C25.2881602,25.0384146 23.6040069,24.2315579 21.401127,24.1290984 C17.8406584,24.0266388 15.0358709,25.5378942 12.9866803,28.6629098 C10.9374898,31.7879255 9.83606634,36.1936191 9.68237705,41.880123 C9.50307287,48.7705263 11.8852212,52.2669052 16.8288934,52.3693648 Z" fill="#ffffffde"></path>
  <path d="M41.2269467,38.076332 C41.6623997,34.0035657 42.8598775,30.3022707 44.819416,26.9723361 C46.7789545,23.6424014 49.2955789,21.0681443 52.3693648,19.2494877 C55.4431506,17.4308311 58.8498788,16.5727454 62.5896516,16.6752049 C66.1501203,16.7264347 69.22386,17.6741711 71.8109631,19.5184426 C74.3980662,21.3627141 76.2871354,23.8857422 77.4782275,27.0876025 C78.6693195,30.2894627 79.0855551,33.8498779 78.7269467,37.7689549 C78.3171086,42.1747147 77.1196308,46.0681183 75.1344775,49.4492828 C73.1493241,52.8304472 70.6134888,55.4239152 67.5268955,57.2297643 C64.4403022,59.0356135 61.0143631,59.8872956 57.2489754,59.7848361 C53.7141217,59.7336063 50.6595928,58.7922735 48.0852971,56.9608094 C45.5110015,55.1293454 43.6219322,52.6191246 42.4180328,49.4300717 C41.2141333,46.2410189 40.7786869,42.725429 41.1116803,38.8831967 L41.2269467,38.076332 Z M50.1793033,43.3401639 C50.3073777,46.0297266 51.01818,48.187748 52.3117316,49.814293 C53.6052831,51.4408381 55.4047016,52.2925201 57.710041,52.3693648 C60.8350566,52.4462094 63.454139,51.242328 65.5673668,48.7576844 C67.6805946,46.2730409 69.0061449,42.8791199 69.5440574,38.5758197 L69.7745902,34.8104508 C69.7745902,31.5317459 69.1214205,28.9574889 67.8150615,27.0876025 C66.5087025,25.2177161 64.6132296,24.2315579 62.1285861,24.1290984 C58.235124,24.0266388 55.1613842,25.9349189 52.9072746,29.8539959 C51.5496858,32.2361799 50.6916002,34.9769312 50.3329918,38.076332 C50.1280727,40.2279821 50.0768438,41.9825752 50.1793033,43.3401639 Z" fill="#ffffffde"></path>
  <path d="M98.5143443,17.4052254 L97.5922131,22.2848361 C101.152682,18.4426037 105.263809,16.5727454 109.925717,16.6752049 C113.819179,16.7520496 116.70081,18.1416361 118.570697,20.8440061 C120.440583,23.5463762 121.132175,27.318111 120.645492,32.1593238 L116.150102,59.0163934 L107.044057,59.0163934 L111.577869,32.0440574 C111.705943,30.9426174 111.718751,29.9180375 111.616291,28.9702869 C111.283298,25.9221159 109.464668,24.3596315 106.160348,24.2827869 C102.702339,24.2315571 99.6670213,25.9349212 97.0543033,29.3929303 L91.8673156,59.0163934 L82.7612705,59.0163934 L89.946209,17.4436475 L98.5143443,17.4052254 Z" fill="#ffffffde"></path>
  <polygon fill="#03DAC6" points="142.085041 47.0671107 155.22541 17.4436475 164.946209 17.4436475 144.467213 59.0163934 136.552254 59.0163934 128.944672 17.4436475 138.089139 17.4436475"></polygon>
  <polygon fill="#03DAC6" points="173.552766 59.0163934 164.446721 59.0163934 171.670082 17.4436475 180.776127 17.4436475"></polygon>
  <path d="M172.976434,6.80071721 C172.976434,5.39189869 173.437495,4.18801729 174.359631,3.18903689 C175.281767,2.19005648 176.52407,1.66495927 178.086578,1.61372951 C179.572241,1.56249974 180.808141,2.01715708 181.794314,2.97771516 C182.780486,3.93827325 183.273566,5.11013653 183.273566,6.49334016 C183.273566,7.95338845 182.793294,9.15726985 181.832736,10.1050205 C180.872178,11.0527711 179.649085,11.5522538 178.163422,11.6034836 C176.703374,11.6547134 175.473878,11.2128633 174.474898,10.2779201 C173.475917,9.34297688 172.976434,8.18392085 172.976434,6.80071721 Z" fill="#03DAC6"></path>
  <path d="M185.732582,38.1915984 C186.24488,33.913913 187.397532,30.0717383 189.190574,26.664959 C190.983616,23.2581797 193.19927,20.7159408 195.837602,19.038166 C198.475935,17.3603912 201.408795,16.5599381 204.63627,16.6367828 C208.862726,16.7392423 212.166996,18.3145339 214.54918,21.3627049 L218.545082,0 L227.689549,0 L217.43084,59.0163934 L209.285348,59.0163934 L209.900102,54.7131148 C206.672627,58.2223536 202.881682,59.9257177 198.527152,59.8232582 C194.659304,59.7720284 191.566354,58.2799839 189.248207,55.3470799 C186.93006,52.4141759 185.681353,48.5143686 185.502049,43.647541 C185.425205,42.0594183 185.463626,40.5097412 185.617316,38.9984631 L185.732582,38.1915984 Z M194.569672,41.7648566 C194.390368,44.9411019 194.883447,47.46413 196.048924,49.3340164 C197.214401,51.2039028 198.949784,52.1644465 201.255123,52.2156762 C204.764362,52.3181358 207.79968,50.6147716 210.361168,47.1055328 L213.473361,29.2392418 C212.269461,26.0373815 209.938542,24.3852464 206.480533,24.2827869 C202.996909,24.1803274 200.192121,25.7171972 198.066086,28.8934426 C195.940051,32.069688 194.774591,36.3601164 194.569672,41.7648566 Z" fill="#03DAC6"></path>
  <path d="M246.016906,59.7848361 C242.405207,59.7079914 239.273835,58.7986767 236.622695,57.0568648 C233.971554,55.3150528 232.012045,52.9329045 230.744109,49.9103484 C229.476172,46.8877923 228.9959,43.5194858 229.303279,39.8053279 L229.418545,38.2300205 C229.879613,34.0035649 231.115512,30.2062156 233.126281,26.8378586 C235.137049,23.4695016 237.640866,20.9144554 240.637807,19.1726434 C243.634749,17.4308315 246.88779,16.5983603 250.397029,16.6752049 C255.59685,16.7776644 259.496657,18.711559 262.096568,22.4769467 C264.696478,26.2423344 265.676233,31.1475108 265.035861,37.192623 L264.497951,41.1885246 L238.33248,41.1885246 C238.101946,44.4928444 238.767923,47.1567522 240.33043,49.1803279 C241.892938,51.2039036 244.044556,52.2412907 246.785348,52.2925205 C250.704425,52.4205949 254.31607,50.7172308 257.620389,47.182377 L262.231045,52.0235656 C260.489233,54.5082091 258.196736,56.4357001 255.353484,57.8060963 C252.510232,59.1764925 249.39807,59.8360658 246.016906,59.7848361 Z M249.897541,24.1290984 C245.081943,23.9754091 241.470299,27.3821373 239.0625,34.3493852 L256.314037,34.3878074 L256.467725,33.5809426 C256.64703,32.402658 256.659837,31.2500056 256.506148,30.1229508 C256.224384,28.3042942 255.507178,26.8698823 254.354508,25.8196721 C253.201838,24.769462 251.716198,24.205943 249.897541,24.1290984 Z" fill="#03DAC6"></path>
  <path d="M270.722336,38.076332 C271.157789,34.0035657 272.355267,30.3022707 274.314805,26.9723361 C276.274344,23.6424014 278.790968,21.0681443 281.864754,19.2494877 C284.93854,17.4308311 288.345268,16.5727454 292.085041,16.6752049 C295.64551,16.7264347 298.719249,17.6741711 301.306352,19.5184426 C303.893456,21.3627141 305.782525,23.8857422 306.973617,27.0876025 C308.164709,30.2894627 308.580944,33.8498779 308.222336,37.7689549 C307.812498,42.1747147 306.61502,46.0681183 304.629867,49.4492828 C302.644713,52.8304472 300.108878,55.4239152 297.022285,57.2297643 C293.935692,59.0356135 290.509752,59.8872956 286.744365,59.7848361 C283.209511,59.7336063 280.154982,58.7922735 277.580686,56.9608094 C275.006391,55.1293454 273.117322,52.6191246 271.913422,49.4300717 C270.709523,46.2410189 270.274076,42.725429 270.60707,38.8831967 L270.722336,38.076332 Z M279.674693,43.3401639 C279.802767,46.0297266 280.513569,48.187748 281.807121,49.814293 C283.100672,51.4408381 284.900091,52.2925201 287.20543,52.3693648 C290.330446,52.4462094 292.949528,51.242328 295.062756,48.7576844 C297.175984,46.2730409 298.501534,42.8791199 299.039447,38.5758197 L299.26998,34.8104508 C299.26998,31.5317459 298.61681,28.9574889 297.310451,27.0876025 C296.004092,25.2177161 294.108619,24.2315579 291.623975,24.1290984 C287.730513,24.0266388 284.656774,25.9349189 282.402664,29.8539959 C281.045075,32.2361799 280.186989,34.9769312 279.828381,38.076332 C279.623462,40.2279821 279.572233,41.9825752 279.674693,43.3401639 Z" fill="#03DAC6"></path>
</svg>
